<?xml version="1.0" encoding="UTF-8"?>
<svg xmlns="http://www.w3.org/2000/svg" xmlns:xlink="http://www.w3.org/1999/xlink"
     width="867" height="867" viewBox="0 0 867 867">
<defs>
</defs>
<path d="M605,656 L605,585 L596,584 L596,576 L592,576 L592,527 L596,526 L595,507 L592,507 L590,456 L592,454 L601,452 L602,446 L642,443 L650,435 L650,377 L653,374 L727,374 L728,382 L758,383 L759,386 L828,385 L828,383 L854,383 L857,386 L858,394 L864,395 L867,451 L865,453 L860,453 L858,482 L855,483 L855,551 L856,552 L856,562 L838,562 L838,579 L839,579 L839,662 L837,663 L837,678 L856,679 L856,714 L852,715 L852,733 L856,734 L856,783 L853,783 L852,787 L803,787 L803,784 L784,783 L783,802 L787,803 L787,827 L785,828 L786,855 L690,855 L689,858 L663,858 L661,860 L660,865 L658,867 L583,867 L581,865 L581,861 L577,858 L552,858 L551,856 L518,856 L518,796 L537,795 L536,768 L525,768 L524,770 L505,770 L505,747 L524,747 L524,749 L537,747 L537,722 L518,721 L518,659 L522,656 Z" id="279768580" fill="none" stroke="#FF8888" />
<path d="M718,656 L636,656 L636,585 L645,584 L646,576 L649,576 L649,553 L653,546 L658,546 L660,544 L661,534 L664,528 L670,525 L672,523 L726,522 L729,519 L730,464 L731,461 L733,458 L735,456 L737,455 L739,454 L741,454 L744,453 L746,453 L748,453 L750,452 L752,450 L752,446 L754,444 L757,443 L758,443 L761,441 L765,441 L799,441 L800,550 L799,552 L799,562 L818,563 L818,578 L816,579 L816,662 L818,662 L817,679 L799,679 L799,689 L800,689 L799,731 L717,730 Z" id="3954940097" fill="none" stroke="#FF8888" />
<path d="M837,465 L837,485 L819,485 L818,466 Z" id="2219637749" fill="none" stroke="#FF8888" />
<path d="M665,508 L665,526 L645,526 L646,507 Z" id="1459723677" fill="none" stroke="#FF8888" />
</svg>