<?xml version="1.0" encoding="UTF-8"?>
<svg xmlns="http://www.w3.org/2000/svg" xmlns:xlink="http://www.w3.org/1999/xlink"
     width="653" height="452" viewBox="0 0 653 452">
<defs>
</defs>
<path d="M183,146 L185,142 L189,139 L193,136 L196,133 L202,132 L206,131 L211,132 L217,133 L223,133 L229,132 L233,132 L238,132 L244,132 L250,132 L255,132 L259,132 L263,132 L265,131 L269,129 L276,124 L278,121 L281,118 L284,116 L289,116 L293,117 L297,119 L306,121 L311,123 L314,125 L321,126 L326,127 L334,130 L340,129 L344,129 L350,135 L354,142 L355,149 L356,156 L357,160 L359,164 L360,168 L362,173 L365,179 L368,182 L372,185 L377,189 L381,192 L385,195 L390,196 L397,195 L402,195 L408,195 L417,193 L422,193 L428,192 L435,192 L441,196 L445,199 L449,208 L450,215 L451,221 L454,227 L457,231 L464,235 L470,238 L476,239 L481,239 L487,239 L493,239 L497,237 L501,232 L504,227 L506,220 L506,213 L506,210 L508,206 L510,202 L514,199 L517,196 L521,192 L524,190 L530,189 L534,189 L539,189 L544,189 L550,189 L554,190 L561,189 L564,189 L569,190 L572,190 L579,189 L584,189 L587,190 L590,192 L590,196 L591,200 L591,205 L591,211 L591,216 L591,219 L590,222 L588,227 L586,230 L586,234 L586,239 L585,242 L584,245 L582,250 L581,255 L580,258 L579,262 L578,265 L576,269 L574,272 L572,275 L570,279 L571,284 L576,291 L581,296 L583,303 L587,307 L591,308 L594,308 L600,309 L605,309 L609,309 L614,309 L620,309 L623,309 L627,309 L631,309 L637,310 L640,310 L645,311 L649,315 L652,320 L653,325 L649,325 L643,327 L640,330 L634,333 L631,335 L628,338 L629,344 L634,344 L637,342 L640,345 L641,350 L640,354 L636,357 L632,359 L630,363 L628,367 L628,371 L627,374 L627,377 L627,381 L627,384 L627,387 L626,390 L626,393 L628,398 L631,403 L633,408 L634,412 L634,415 L633,417 L631,420 L629,422 L627,424 L624,426 L621,427 L619,428 L614,429 L611,430 L609,431 L606,432 L603,433 L599,433 L597,434 L593,435 L589,435 L585,435 L581,436 L577,438 L575,440 L572,442 L569,444 L566,446 L563,449 L561,450 L557,452 L553,452 L549,452 L546,450 L543,447 L539,445 L536,442 L533,439 L530,436 L527,432 L523,428 L520,424 L519,419 L518,415 L518,411 L520,408 L521,405 L522,403 L524,399 L525,396 L525,391 L523,385 L519,381 L516,376 L512,373 L507,372 L503,370 L498,368 L492,367 L486,366 L480,365 L475,364 L471,362 L469,360 L468,356 L467,350 L468,345 L469,342 L468,337 L469,332 L469,327 L469,323 L469,319 L470,313 L467,308 L463,303 L459,299 L455,295 L449,293 L444,291 L440,290 L435,288 L430,287 L424,286 L421,285 L418,285 L413,285 L408,280 L404,278 L398,275 L388,274 L383,274 L378,274 L373,274 L369,275 L365,277 L361,279 L357,280 L353,282 L348,284 L343,284 L339,285 L334,286 L330,287 L326,287 L322,288 L318,290 L313,292 L310,294 L307,296 L303,299 L301,303 L298,306 L295,310 L291,314 L289,318 L290,323 L290,330 L290,335 L289,339 L289,345 L289,349 L290,353 L291,358 L288,361 L284,363 L280,364 L276,365 L271,367 L266,368 L260,369 L255,370 L250,369 L245,370 L240,370 L236,367 L232,365 L227,363 L223,362 L218,360 L212,358 L207,355 L202,350 L199,345 L196,340 L195,335 L195,329 L196,324 L196,318 L194,313 L191,308 L189,304 L185,300 L181,295 L176,291 L172,288 L167,286 L162,284 L156,283 L150,283 L145,284 L140,284 L136,283 L131,277 L128,272 L126,267 L128,262 L128,254 L126,249 L125,244 L123,239 L123,235 L123,230 L124,224 L124,220 L126,214 L126,208 L128,202 L131,198 L135,193 L140,191 L143,189 L149,187 L153,186 L156,186 L161,187 L167,186 L173,184 L176,182 L179,178 L182,172 L183,168 L183,160 L182,158 L181,155 L182,149 Z" fill="none" stroke="#FF8888" />
</svg>