<?xml version="1.0" encoding="UTF-8"?>
<svg xmlns="http://www.w3.org/2000/svg" xmlns:xlink="http://www.w3.org/1999/xlink"
     width="580" height="650" viewBox="0 0 580 650">
<defs>
</defs>
<path d="M429,514 L427,513 L425,512 L423,512 L421,512 L419,512 L416,512 L414,513 L412,512 L410,511 L407,511 L404,511 L403,512 L401,512 L400,513 L398,513 L396,513 L394,512 L391,510 L389,508 L386,506 L385,504 L383,502 L382,499 L382,498 L384,494 L384,489 L384,486 L383,483 L386,482 L389,480 L390,478 L392,475 L390,472 L388,470 L386,468 L384,466 L381,465 L378,464 L376,460 L374,458 L372,454 L371,450 L369,448 L366,446 L364,444 L361,442 L358,440 L355,440 L354,439 L350,438 L346,440 L346,442 L344,445 L342,444 L339,445 L338,448 L335,448 L333,449 L331,451 L329,452 L325,454 L322,457 L319,460 L317,464 L316,466 L314,468 L312,472 L310,474 L307,476 L304,478 L304,483 L306,485 L304,487 L303,490 L303,493 L305,495 L306,498 L308,501 L310,505 L312,509 L313,513 L313,517 L313,520 L312,524 L311,528 L309,531 L308,534 L306,537 L304,539 L303,543 L306,547 L306,551 L303,552 L303,556 L306,559 L307,562 L310,566 L313,570 L315,575 L318,579 L321,583 L325,586 L328,590 L331,592 L336,594 L340,595 L344,595 L345,592 L345,590 L348,591 L352,591 L354,591 L358,590 L360,589 L364,590 L368,593 L371,597 L374,601 L375,605 L375,607 L374,610 L373,613 L374,618 L372,620 L370,623 L369,627 L368,630 L366,631 L362,632 L360,634 L359,638 L358,641 L356,642 L353,643 L350,645 L347,645 L346,646 L344,648 L341,650 L338,649 L335,648 L332,646 L329,644 L327,642 L324,638 L322,636 L321,632 L320,629 L320,626 L317,622 L317,618 L317,614 L317,610 L316,606 L315,603 L314,599 L310,595 L308,591 L305,588 L300,584 L297,582 L293,579 L290,578 L287,577 L284,577 L281,577 L276,578 L275,581 L272,581 L268,580 L264,579 L259,579 L256,579 L252,579 L249,579 L244,580 L240,580 L237,581 L234,582 L231,582 L228,582 L223,581 L219,581 L215,580 L211,582 L207,582 L204,578 L200,574 L197,571 L193,567 L191,563 L189,559 L187,555 L187,551 L188,548 L189,544 L190,542 L190,540 L191,539 L193,536 L193,533 L192,529 L193,527 L194,522 L193,520 L191,516 L189,512 L188,508 L189,504 L191,502 L192,496 L187,493 L184,490 L182,487 L178,482 L183,478 L184,473 L185,467 L185,462 L184,457 L185,453 L187,448 L187,442 L185,437 L183,433 L182,430 L179,427 L179,422 L177,415 L181,412 L182,408 L184,405 L186,400 L192,399 L195,396 L196,392 L197,390 L202,388 L205,388 L207,384 L210,382 L215,381 L219,381 L224,381 L228,381 L230,380 L233,378 L237,374 L239,370 L241,367 L240,362 L240,358 L242,355 L243,352 L244,348 L246,344 L247,340 L247,337 L248,333 L246,329 L243,328 L240,324 L237,318 L239,315 L240,312 L243,309 L244,305 L247,302 L247,295 L249,290 L250,285 L253,277 L256,271 L258,268 L260,264 L262,260 L267,256 L268,253 L271,251 L274,248 L276,245 L279,248 L283,249 L288,250 L291,255 L296,257 L301,259 L306,259 L310,257 L312,255 L315,252 L318,249 L320,246 L322,242 L322,238 L322,233 L321,230 L320,224 L316,219 L315,214 L314,208 L314,203 L313,197 L314,193 L315,190 L318,188 L321,185 L324,182 L327,179 L331,178 L334,177 L338,177 L343,176 L346,175 L351,178 L356,180 L359,182 L363,186 L365,191 L368,195 L369,198 L369,202 L370,206 L366,207 L365,211 L366,215 L366,217 L368,218 L372,219 L375,220 L377,225 L381,225 L384,225 L389,228 L393,231 L396,233 L400,236 L403,239 L406,242 L410,244 L413,245 L415,250 L419,251 L422,253 L426,254 L428,258 L429,262 L433,265 L438,267 L439,270 L439,274 L438,278 L437,280 L436,285 L439,288 L442,291 L446,293 L450,296 L454,301 L455,306 L459,311 L464,315 L472,318 L479,319 L482,315 L484,311 L490,311 L494,309 L499,308 L504,308 L508,312 L513,316 L517,315 L522,316 L529,315 L533,315 L540,318 L545,317 L547,316 L552,317 L558,321 L562,324 L563,329 L567,335 L571,340 L572,345 L570,349 L568,355 L568,360 L572,365 L574,368 L577,373 L579,378 L580,382 L578,387 L575,390 L573,395 L572,400 L572,406 L571,411 L569,415 L565,420 L561,422 L559,425 L559,428 L557,432 L556,437 L555,442 L555,448 L552,451 L552,446 L548,444 L545,443 L539,442 L536,445 L533,447 L528,449 L525,450 L520,451 L515,451 L510,450 L506,449 L502,447 L498,444 L495,443 L492,440 L489,442 L485,443 L483,444 L481,442 L477,438 L473,439 L472,440 L468,440 L465,442 L463,444 L461,446 L458,448 L456,450 L455,453 L454,456 L452,459 L450,462 L447,465 L443,466 L440,469 L437,472 L436,477 L440,482 L444,483 L443,485 L442,489 L443,493 L444,496 L444,499 L443,502 L442,504 L440,506 L438,509 L436,511 L434,512 L431,514 Z" id="279768580" fill="none" stroke="#FF8888" />
<path d="M380,389 L376,391 L372,393 L368,394 L363,396 L359,397 L354,398 L350,398 L343,397 L337,398 L332,399 L326,397 L322,395 L317,396 L319,392 L317,389 L315,386 L317,382 L317,379 L315,377 L314,373 L316,371 L318,367 L320,365 L323,362 L328,359 L333,359 L339,360 L345,362 L348,360 L353,358 L357,359 L359,357 L360,352 L362,347 L361,343 L358,340 L357,336 L357,333 L357,328 L357,323 L357,319 L359,315 L359,310 L359,306 L359,302 L360,299 L360,297 L359,294 L359,292 L359,288 L359,285 L360,282 L361,278 L361,274 L361,271 L361,268 L361,265 L360,261 L358,258 L358,255 L359,252 L359,249 L360,246 L362,244 L364,242 L367,240 L371,239 L374,241 L377,242 L379,243 L382,244 L385,246 L388,247 L392,248 L395,249 L398,251 L400,253 L401,256 L401,259 L401,261 L402,263 L404,263 L407,268 L406,271 L402,274 L401,274 L399,276 L399,279 L399,282 L400,284 L402,286 L402,290 L402,293 L401,297 L400,301 L398,304 L397,307 L396,312 L395,317 L395,320 L395,324 L395,327 L396,331 L398,335 L399,340 L398,343 L398,347 L400,350 L401,353 L403,357 L403,360 L403,364 L402,367 L400,370 L399,373 L397,375 L395,378 L393,380 L391,382 L389,384 L386,386 L383,388 Z" id="3954940097" fill="none" stroke="#FF8888" />
<path d="M312,411 L309,414 L310,418 L308,422 L306,425 L303,427 L300,428 L297,432 L297,437 L297,442 L296,446 L293,449 L290,450 L286,451 L284,452 L280,453 L276,454 L273,456 L268,458 L264,456 L259,454 L256,452 L254,450 L250,447 L248,443 L247,439 L245,437 L243,434 L240,431 L239,431 L234,431 L233,427 L231,425 L229,423 L228,420 L230,417 L232,415 L236,413 L237,412 L238,409 L237,406 L238,403 L238,401 L236,396 L238,393 L240,391 L242,391 L245,391 L247,388 L248,386 L249,384 L251,383 L252,383 L253,382 L256,382 L257,382 L260,382 L262,381 L265,380 L268,379 L270,378 L274,376 L274,373 L274,370 L275,368 L278,365 L281,366 L282,370 L281,373 L283,376 L286,381 L287,383 L289,387 L292,390 L294,393 L295,395 L297,399 L300,401 L302,402 L304,403 L307,405 L309,407 Z" id="2359120247" fill="none" stroke="#FF8888" />
</svg>