<?xml version="1.0" encoding="UTF-8"?>
<svg xmlns="http://www.w3.org/2000/svg" xmlns:xlink="http://www.w3.org/1999/xlink"
     width="583" height="629" viewBox="0 0 583 629">
<defs>
</defs>
<path d="M483,252 L488,275 L483,275 L488,293 L506,293 L507,298 L529,298 L530,319 L533,321 L533,339 L583,340 L583,372 L533,372 L533,397 L511,397 L511,414 L506,414 L506,452 L494,465 L500,471 L513,459 L575,459 L575,505 L551,529 L543,529 L530,542 L529,551 L505,575 L459,575 L459,513 L471,500 L465,493 L452,506 L414,511 L414,506 L396,511 L397,533 L372,533 L372,629 L340,629 L340,534 L321,533 L318,529 L298,529 L297,506 L293,506 L292,488 L275,488 L274,483 L252,483 L248,460 L252,460 L248,385 L269,385 L270,367 L274,367 L275,306 L288,293 L281,286 L268,299 L230,299 L206,275 L206,230 L230,206 L275,206 L299,230 L299,268 L286,281 L293,287 L306,275 L366,275 L367,270 L385,269 L384,248 L460,248 L460,252 Z" fill="none" stroke="#FF8888" />
</svg>